<?xml version="1.0" encoding="utf-8"?>
<!-- Svg Vector Icons : http://www.onlinewebfonts.com/icon -->
<!DOCTYPE svg PUBLIC "-//W3C//DTD SVG 1.1//EN" "http://www.w3.org/Graphics/SVG/1.1/DTD/svg11.dtd">
<svg version="1.1" xmlns="http://www.w3.org/2000/svg" xmlns:xlink="http://www.w3.org/1999/xlink" x="0px" y="0px" viewBox="0 0 256 256" enable-background="new 0 0 256 256" xml:space="preserve">
<metadata> Svg Vector Icons : http://www.onlinewebfonts.com/icon </metadata>
<g><g><g><path fill="#000000" d="M123.6,10.3c-3.5,0.6-9.5,3.6-12.4,6.2c-6.1,5.5-9.3,13.1-9.3,21.9c0,7.3,2.2,13.5,6.6,19l2.1,2.5l-3.3,0.6c-17.8,3.2-29.6,11.9-33.5,24.7c-2.3,7.4-2.3,30.8,0,42.2c2.9,14.7,9,23,18,24.4c1.3,0.2,2.4,0.5,2.5,0.6c0.1,0.1,0.4,7.2,0.7,15.9c1.1,31.4,3.9,63,6,68c2.1,4.6,5.9,7.8,11,9.1c2.4,0.6,5.2,0.7,17.3,0.6c13.7-0.1,14.5-0.2,17-1.2c6.2-2.4,9.2-7.1,10.3-15.8c2.1-16.1,3.7-37.3,4.4-60.2c0.3-9.4,0.7-16.3,1-16.4c0.3-0.2,1.5-0.4,2.7-0.6c5.2-0.6,10.5-4.7,13.5-10.4c3.8-7.2,5.4-15.3,5.7-29.6c0.5-17.8-0.8-27.2-4.4-33.4c-5-8.7-15.7-15-29.6-17.6l-4.4-0.8l2.3-2.8c4.6-5.7,6.5-11.5,6.5-19.2c0-5.7-1.3-10.4-4.1-15C144.5,13.7,133.8,8.6,123.6,10.3z M130.7,18.2c17.4,3.2,21.4,28.4,6,38.1c-2.4,1.5-3,2.6-3,5.7c0,1.9,0.2,2.5,1.3,3.6c1.2,1.2,1.8,1.3,6.6,1.8c16.5,1.8,27.1,7.3,31.7,16.4c2.2,4.3,2.6,7.7,2.6,22.4c0,13.7-0.2,17.4-1.8,24c-2,8.2-6.6,13.8-11.2,13.8h-1.3l-0.3-15.4c-0.5-21.3-1.1-31.6-1.9-32.9c-1.4-2.1-4.7-1.9-6.3,0.3c-0.8,1.2-0.8,1.6-0.3,11.5c0.7,13.6,0.7,59.8,0,73.4c-1.1,18.7-2.4,35.1-4,46.9c-0.7,5.5-1.6,7.3-4.5,8.9c-1.8,1-2.5,1.2-7.1,1.2h-5.1l-0.2-45.7c-0.2-44.2-0.3-45.8-1.1-46.7c-1.3-1.4-4.1-1.3-5.6,0.2l-1.2,1.1v45.7v45.7h-4.2c-5.2,0-7.3-0.6-9.4-2.4c-1.9-1.7-2.4-2.8-3-6.6c-3.8-26.4-5.7-68.5-4.7-103.5c0.3-10.8,0.6-21.7,0.8-24.3c0.2-4.3,0.2-4.7-0.7-5.6c-1.9-2.1-5.4-1.8-6.4,0.6c-0.6,1.3-1.3,15.1-1.8,34.2l-0.3,13.5h-1.1c-1.6,0-4.4-1.6-5.9-3.3c-3.2-3.7-5.6-11-6.8-20c-0.7-5.8-0.8-25.1,0-29.8c2.2-13.7,14.2-21.6,36-23.8c4.3-0.5,5.5-1.6,5.5-5.5c0-2.9-0.7-4.2-3-5.5c-2.3-1.4-5.2-4.4-6.8-7.2c-2-3.5-2.8-6.9-2.5-11.9c0.1-4,0.3-4.8,1.8-8c2.9-6,7.7-10,13.4-10.9c1.3-0.2,2.6-0.4,2.7-0.5C127.9,17.7,129.3,17.9,130.7,18.2z"/></g></g></g>
</svg>